<svg id="Layer_1" data-name="Layer 1" xmlns="http://www.w3.org/2000/svg" viewBox="0 0 380.5 371.26"><defs><style>.cls-1{fill:#fff;stroke:#231f20;stroke-miterlimit:10;stroke-width:20px;}.cls-2{fill:#7eaef2;}</style></defs><title>logo</title><path class="cls-1" d="M379.48,185.78H267l-4.2,7.42,26.66,28L259.5,245.73l14.73,35.75-36.74,12.06.82,38.66-38.62-2-13.2,36.35-35.28-15.84-13.8,15.8v61.38a61.93,61.93,0,0,0,61.92,61.93H379.48a61.93,61.93,0,0,0,61.93-61.93V247.7A61.93,61.93,0,0,0,379.48,185.78Z" transform="translate(-127.41 -128.52)"/><path class="cls-2" d="M501.15,172.73c-11.25-11.49-22.71-22.79-34.09-34.16-13.37-13.35-19.06-13.39-32.26-.2Q343.6,229.59,252.56,321c-6.5,6.56-9.74,6.06-15.81-.23-1.73-1.8-7.48-15.56-9.22-17.35l-.31,13.71-35.15,1.5L179.78,350l-30.89-12.22-13.48,15.41c28.38,28.47,59.81,51.89,88.49,80.06,5.13,5,9.51,9.64,20.79,9.64,13.31,0,16.36-5.11,21.85-10.57Q384.1,315.62,501,198.22C510.16,189,510.22,182,501.15,172.73Z" transform="translate(-127.41 -128.52)"/></svg>